<?xml version="1.0" encoding="UTF-8"?>
<!DOCTYPE svg PUBLIC "-//W3C//DTD SVG 1.1//EN" "http://www.w3.org/Graphics/SVG/1.1/DTD/svg11.dtd">
<!-- Creator: CorelDRAW -->
<svg xmlns="http://www.w3.org/2000/svg" xml:space="preserve" width="405.364mm" height="162.736mm" version="1.1" style="shape-rendering:geometricPrecision; text-rendering:geometricPrecision; image-rendering:optimizeQuality; fill-rule:evenodd; clip-rule:evenodd"
viewBox="0 0 2628.84 1055.36"
 xmlns:xlink="http://www.w3.org/1999/xlink"
 xmlns:xodm="http://www.corel.com/coreldraw/odm/2003">
 <defs>
  <style type="text/css">
   <![CDATA[
    .fil1 {fill:#1B1C1C}
    .fil0 {fill:#2F267C}
    .fil2 {fill:#B4B5B4}
   ]]>
  </style>
 </defs>
 <g id="Ebene_x0020_1">
  <metadata id="CorelCorpID_0Corel-Layer"/>
  <polygon class="fil0" points="48.57,295.3 265.7,295.3 426.38,586.25 795.51,0 943.15,0 491.52,716.54 296.1,716.54 "/>
  <g>
   <path class="fil1" d="M1672.37 1053.98l-15.33 -99.43 -19.51 0 -19.65 58.08c-2.38,6.81 -3.87,12.44 -5.66,19.84l-0.15 -0c-1.78,-7.55 -3.87,-14.8 -5.66,-20.42l-19.35 -57.49 -19.35 0 -15.03 99.43 16.52 0 6.4 -51.42c1.04,-9.48 2.08,-17.32 2.67,-25.91l0.3 -0c1.49,7.55 3.57,15.25 6.39,23.54l18.01 53.78 16.82 0 18.9 -57.78c2.53,-7.55 4.02,-13.91 5.21,-19.54l0.31 -0c0.74,6.51 1.63,14.37 3.12,24.43l7.89 52.89 17.12 0zm722.59 0l-15.34 -99.43 -19.5 0 -19.65 58.08c-2.38,6.81 -3.87,12.44 -5.66,19.84l-0.15 -0c-1.78,-7.55 -3.87,-14.8 -5.66,-20.42l-19.35 -57.49 -19.35 0 -15.03 99.43 16.52 0 6.4 -51.42c1.04,-9.48 2.08,-17.32 2.67,-25.91l0.3 -0c1.5,7.55 3.57,15.25 6.4,23.54l18.01 53.78 16.82 0 18.9 -57.78c2.53,-7.55 4.02,-13.91 5.21,-19.54l0.3 -0c0.74,6.51 1.64,14.37 3.13,24.43l7.89 52.89 17.12 0 0 0zm-1920.22 0l-36.55 -99.43 -18.06 0 -36.1 99.43 16.41 0 7.76 -22.12 40.73 0 7.75 22.12 18.05 0 0 0zm-29.99 -34.94l-32.37 0 11.93 -33.03c1.64,-4.72 2.98,-9.14 4.03,-13.41l0.3 0c1.05,4.27 2.54,8.7 4.18,13.56l11.94 32.88 0 0zm1606.04 30.31l0 -46.8 -16.25 0 0 36.22c-4.62,1.47 -9.69,2.37 -15.51,2.37 -21.61,-0 -34.88,-13.45 -34.88,-36.51 0.01,-24.69 15.95,-37.69 36.22,-37.69 9.39,-0 18.03,1.77 25.93,4.88l3.43 -14.59c-8.35,-2.46 -18.04,-4.05 -28.18,-4.05 -33.98,-0 -54.59,22.18 -54.59,53.08 0,30.74 18.97,49.11 50.12,49.11 11.48,-0 23.7,-2.2 33.69,-6.01l0.01 0zm182.61 0l0 -46.8 -16.25 0 0 36.22c-4.61,1.47 -9.69,2.37 -15.5,2.37 -21.61,-0 -34.88,-13.45 -34.88,-36.51 0,-24.69 15.95,-37.69 36.22,-37.69 9.39,-0 18.03,1.77 25.94,4.88l3.43 -14.59c-8.35,-2.46 -18.04,-4.05 -28.18,-4.05 -33.98,-0 -54.59,22.18 -54.59,53.08 0,30.74 18.97,49.11 50.12,49.11 11.48,-0 23.7,-2.2 33.69,-6.01l0 0zm-1388.55 4.63l0 -99.43 -15.79 0 0 29.36c0,14.66 0.45,36.13 1.04,47.52 -3.72,-7.26 -7.75,-15.25 -12.22,-22.65l-33.22 -54.23 -21.3 0 0 99.43 15.79 0 0 -33.35c0,-14.22 -0.3,-34.49 -0.9,-44.26 3.13,6.66 6.7,13.77 11.17,21.02l34.42 56.59 20.99 0 0 0zm436.21 0l0 -99.43 -15.79 0 0 29.36c0,14.66 0.45,36.13 1.04,47.52 -3.72,-7.26 -7.75,-15.25 -12.22,-22.65l-33.23 -54.23 -21.29 0 0 99.43 15.78 0 0 -33.35c0,-14.22 -0.3,-34.49 -0.89,-44.26 3.13,6.66 6.7,13.77 11.17,21.02l34.42 56.59 20.99 0 0 0zm643.59 0l0 -99.43 -15.78 0 0 29.36c0,14.66 0.44,36.13 1.04,47.52 -3.72,-7.26 -7.75,-15.25 -12.22,-22.65l-33.22 -54.23 -21.3 0 0 99.43 15.79 0 0 -33.35c0,-14.22 -0.3,-34.49 -0.9,-44.26 3.13,6.66 6.7,13.77 11.17,21.02l34.42 56.59 21 0 0 0zm-1338.1 -38.15l0 -61.28 -15.78 0 0 62.46c0,18.69 -7.48,25.51 -23.93,25.51 -18.69,-0 -23.18,-10.08 -23.18,-23.43l0 -64.54 -16.25 0 0 65.73c0,18.39 6.7,35.08 38.38,35.08 26.46,-0 40.76,-12.84 40.76,-39.53l0 -0.01zm126.87 0l0 -61.28 -15.79 0 0 62.46c0,18.69 -7.48,25.51 -23.93,25.51 -18.69,-0 -23.18,-10.08 -23.18,-23.43l0.01 -64.54 -16.25 0 0 65.73c0,18.39 6.7,35.08 38.38,35.08 26.46,-0 40.76,-12.84 40.76,-39.53l0.01 -0.01zm1079.79 0l0 -61.28 -15.78 0 0 62.46c0,18.69 -7.48,25.51 -23.94,25.51 -18.69,-0 -23.18,-10.08 -23.18,-23.43l0 -64.54 -16.25 0 0 65.73c0,18.39 6.71,35.08 38.38,35.08 26.46,-0 40.76,-12.84 40.76,-39.53l0 -0.01zm-282.62 38.15l0 -99.43 -16.25 0 0 41.02 -47.58 0 0 -41.02 -16.25 0 0 99.43 16.25 0 0 -44.7 47.58 0 0 44.7 16.25 0 0 0zm1118.11 0l0 -99.43 -16.25 0 0 41.02 -47.58 0 0 -41.02 -16.24 0 0 99.43 16.24 0 0 -44.7 47.58 0 0 44.7 16.25 0 0 0zm-1673.9 -86.13l0 -13.3 -71.56 0 0 13.3 27.58 0 0 86.13 16.25 0 0 -86.13 27.73 0 0 0zm204.13 86.13l-25.37 -34.52c-2.39,-3.4 -5.52,-7.1 -8.36,-10.65 14.99,-1.78 27.16,-11.98 27.16,-27.97 0,-19.68 -14.08,-26.75 -34.92,-26.75 -11.33,-0 -19.69,0.14 -26.99,0.58l0.01 99.3 16.25 0 0 -42.96 1.78 0 30.24 42.96 20.2 0 0 0zm-23.28 -71.36c0,9.92 -7.91,16.58 -21.04,16.58 -3.58,-0 -6.42,-0.15 -7.91,-0.3l0.01 -31.67c2.39,-0.15 5.36,-0.29 8.5,-0.29 13.58,-0 20.44,4.73 20.44,15.68l0 -0.01zm-781.83 41.5c0,-10.38 -6.26,-20.27 -19.38,-22.77l0 -0.3c10.44,-3.82 16.4,-12.54 16.4,-22.74 0.01,-15.36 -11.33,-24.2 -32.86,-24.2 -12.27,-0 -23.46,0.29 -31.36,0.44l0 99.46c11.18,0.14 21.48,0.43 27.62,0.43 30.94,-0.01 39.58,-17.28 39.58,-30.33l0 -0zm-17.3 0.29c0,10.08 -6.87,17.2 -21.69,17.2 -5.23,-0.01 -9.43,-0.3 -11.97,-0.74l0 -31.87c2.24,-0.15 7.48,-0.14 9.12,-0.14 14.22,-0 24.53,4.15 24.53,15.56l0 -0zm-2.83 -43.59c0,10.05 -7.04,16.11 -22.15,16.11 -3.44,-0 -5.98,0 -8.68,-0.15l0 -29.56c3.89,-0.15 7.93,-0.29 12.27,-0.29 14.07,-0 18.56,5.76 18.56,13.89l0 -0zm2170.92 43.29c0,-10.38 -6.27,-20.27 -19.39,-22.77l0 -0.3c10.44,-3.82 16.4,-12.54 16.4,-22.74 0,-15.36 -11.33,-24.2 -32.86,-24.2 -12.27,-0 -23.46,0.29 -31.36,0.44l0 99.46c11.18,0.14 21.48,0.43 27.62,0.43 30.94,-0.01 39.58,-17.28 39.58,-30.33l0.01 -0zm-17.3 0.29c0,10.08 -6.88,17.2 -21.69,17.2 -5.23,-0.01 -9.43,-0.3 -11.97,-0.74l0 -31.87c2.25,-0.15 7.48,-0.14 9.13,-0.14 14.22,-0 24.53,4.15 24.53,15.56l0.01 -0zm-2.84 -43.59c0,10.05 -7.04,16.11 -22.15,16.11 -3.44,-0 -5.99,0 -8.68,-0.15l0 -29.56c3.89,-0.15 7.93,-0.29 12.27,-0.29 14.07,-0 18.56,5.76 18.56,13.89l0 -0zm-1439.63 73.13l0 -13.71 -36.83 0 0 -30.94 35.03 0 0 -12.84 -35.03 0 0 -29.07 36.83 0 0 -12.85 -53.07 0 0 99.4 53.07 0 0 0zm340.05 0l0 -13.71 -36.82 0 0 -30.94 35.03 0 0 -12.84 -35.03 0 0 -29.07 36.82 0 0 -12.85 -53.07 0 0 99.4 53.07 0z"/>
  </g>
  <g>
   <path class="fil2" d="M830.25 710.69l0 157.84 -830.25 0 0 -762.9 721.25 0 -286.84 455.58 -125.27 -226.84 -14.36 0 -25.2 -45.63 -231.5 0 -0.48 0.83 254.75 433.52 28.08 0 19.1 32.51 195.42 0 98.08 -155.62c1.84,37.2 12.01,68.09 31.35,90.35 10.76,12.38 24.25,21.96 40.42,28.41 16.15,6.44 34.85,9.74 56.07,9.74 19.27,-0 37.56,-3.56 54.16,-10.38 5.26,-2.17 10.33,-4.64 15.22,-7.43zm-7.69 -126.91c0,29.06 -8.24,48.14 -19.3,59.91 -5.55,5.9 -11.92,10.09 -18.55,12.8 -6.65,2.72 -13.6,3.97 -20.28,3.97 -9.79,-0 -17.98,-1.9 -24.77,-5.3 -6.77,-3.4 -12.37,-8.41 -16.87,-14.97 -9.07,-13.24 -13.73,-32.9 -13.73,-57.99 0,-26.98 7.3,-45.72 17.75,-57.64 5.24,-5.97 11.33,-10.32 17.9,-13.18 6.58,-2.87 13.67,-4.28 20.91,-4.28 9.59,-0.01 17.81,1.66 24.74,4.78 6.91,3.1 12.71,7.73 17.41,13.91 9.48,12.44 14.8,31.61 14.8,58l0.01 -0zm-92.09 -138.36l99.79 -158.32 0 164.42c-17.79,-7.95 -38.12,-11.67 -59.91,-11.67 -13.83,0 -27.23,1.9 -39.88,5.58l0 -0.01z"/>
  </g>
  <g>
   <path class="fil0" d="M893.35 579.45c0,-93.38 -52.5,-133.52 -122.79,-133.52 -72.67,-0.01 -132.26,54.17 -132.26,141.02 0,83.7 40.26,135.01 122.78,135.01 73.85,-0.01 132.26,-54.86 132.27,-142.51zm-65.12 3.95c0,60.41 -34.36,82.13 -63.59,82.13 -42.26,-0 -61.22,-32.38 -61.22,-83.71 0,-55.67 30.41,-80.55 62.41,-80.55 40.68,-0.01 62.4,28.43 62.4,82.13l0 -0zm890.74 -3.95c0,-93.38 -52.5,-133.52 -122.79,-133.52 -72.67,-0.01 -132.26,54.17 -132.26,141.02 0,83.7 40.26,135.01 122.78,135.01 73.86,-0.01 132.26,-54.86 132.26,-142.51l0.01 -0zm-65.12 3.95c0,60.41 -34.36,82.13 -63.59,82.13 -42.26,-0 -61.22,-32.38 -61.22,-83.71 0,-55.67 30.41,-80.55 62.4,-80.55 40.68,-0.01 62.4,28.43 62.4,82.13l0 -0zm509.75 121.36l0 -129.53 -61.51 0 0 87.88c-7.13,2.39 -15.84,3.58 -25.34,3.58 -49.89,-0 -76.02,-31.02 -76.02,-80.72 0.01,-52.49 31.28,-84.7 81.96,-84.7 25.71,-0.01 48.18,4.77 67.5,12.33l12.23 -55.54c-20.5,-6.23 -48.11,-10.9 -76.96,-10.9 -93.01,-0 -151.03,58.08 -151.03,143.58 0,81.44 48.94,131.29 135.59,131.29 34.44,-0 67.55,-6.67 93.58,-17.27l0 -0zm-1009.18 12.34l0 -266.23 -59.04 0 0 87.33c0,25.37 0.78,60.66 2.75,83.65 -9.52,-20.62 -20.67,-44.01 -32.61,-65.81l-58.91 -105.17 -78.95 0 0 266.23 59.04 0 0 -101.2c0,-25.37 -0.79,-52.33 -1.97,-72.15 7.15,17.44 16.7,38.06 27.85,58.67l63.3 114.68 78.56 0 0 0zm1474.43 0l0 -266.23 -59.04 0 0 87.33c0,25.37 0.78,60.66 2.75,83.65 -9.52,-20.62 -20.67,-44.01 -32.61,-65.81l-58.91 -105.17 -78.96 0 0 266.23 59.05 0 0 -101.2c0,-25.37 -0.79,-52.33 -1.97,-72.15 7.15,17.44 16.7,38.06 27.85,58.67l63.3 114.68 78.56 0 0 0zm-1200 0l0 -266.23 -61.51 0 0 102.36 -97.59 0 0 -102.36 -61.51 0 0 266.23 61.51 0 0 -111 97.59 0 0 111 61.51 0 0 0zm474.32 0l0 -51.64 -88.4 0 0 -59.46 83.67 0 0 -49.44 -83.67 0 0 -54.04 88.4 0 0 -51.64 -149.91 0 0 266.23 149.91 0 0 0zm456.62 0l0 -51.64 -88.4 0 0 -59.46 83.66 0 0 -49.44 -83.66 0 0 -54.04 88.4 0 0 -51.64 -149.91 0 0 266.23 149.91 0z"/>
  </g>
 </g>
</svg>
